<svg xmlns="http://www.w3.org/2000/svg" xmlns:xlink="http://www.w3.org/1999/xlink" viewBox="0 0 17638.26 9727.014" height="367.635" width="666.643"><defs><linearGradient id="a"><stop offset="0" stop-opacity=".678"/><stop offset=".417" stop-opacity=".348"/><stop offset="1" stop-color="#fff" stop-opacity="0"/></linearGradient><linearGradient id="b"><stop offset="0" stop-color="#e3f9ff"/><stop offset=".362" stop-color="#73bee7"/><stop offset=".625" stop-color="#438ec5"/><stop offset=".726" stop-color="#477daf"/><stop offset="1" stop-color="#020407"/></linearGradient><linearGradient id="c"><stop offset="0" stop-color="#fff"/><stop offset="1" stop-color="#fff" stop-opacity="0"/></linearGradient><linearGradient id="d"><stop offset="0" stop-color="#fff"/><stop offset="1" stop-color="#4d4d4d"/></linearGradient><linearGradient id="e"><stop offset="0"/><stop offset="1" stop-opacity="0"/></linearGradient><linearGradient id="g"><stop offset="0" stop-color="#1b4a78"/><stop offset="1" stop-color="#5dacd1"/></linearGradient><linearGradient id="f"><stop offset="0" stop-color="#164a0e"/><stop offset="1" stop-opacity="0" stop-color="#164a0e"/></linearGradient><linearGradient xlink:href="#c" id="k" gradientUnits="userSpaceOnUse" gradientTransform="scale(1.10849 .90213)" x1="105.807" y1="25.611" x2="82.344" y2="46.947"/><linearGradient xlink:href="#c" id="l" gradientUnits="userSpaceOnUse" x1="43.398" y1="-53.391" x2="38.977" y2="40.054"/><linearGradient xlink:href="#c" id="m" gradientUnits="userSpaceOnUse" x1="52.26" y1="152.044" x2="52.26" y2="29.676"/><linearGradient xlink:href="#d" id="n" gradientUnits="userSpaceOnUse" gradientTransform="scale(1.60984 .62118)" x1="134.941" y1="1157.434" x2="339.523" y2="1586.831"/><linearGradient xlink:href="#c" id="o" gradientUnits="userSpaceOnUse" gradientTransform="scale(.22444 4.45555)" x1="1140.647" y1="205.639" x2="1140.647" y2="190.828"/><linearGradient xlink:href="#d" id="p" gradientUnits="userSpaceOnUse" gradientTransform="scale(.75766 1.31986)" x1="144.794" y1="329.13" x2="1646.077" y2="1429.552"/><linearGradient xlink:href="#d" id="q" gradientUnits="userSpaceOnUse" gradientTransform="scale(.75766 1.31986)" x1="1496.672" y1="1288.635" x2="65.467" y2="253.687"/><linearGradient xlink:href="#d" id="r" gradientUnits="userSpaceOnUse" gradientTransform="scale(1.6488 .6065)" x1="109.33" y1="792.849" x2="166.326" y2="1162.304"/><linearGradient xlink:href="#d" id="s" gradientUnits="userSpaceOnUse" x1="56.626" y1="75.537" x2="62" y2="81.318"/><linearGradient xlink:href="#e" id="t" gradientUnits="userSpaceOnUse" x1="54.853" y1="71.868" x2="58.015" y2="77.287"/><linearGradient xlink:href="#d" id="u" gradientUnits="userSpaceOnUse" gradientTransform="scale(1.6488 .6065)" x1="100.408" y1="957.481" x2="203.601" y2="1332.709"/><linearGradient xlink:href="#d" id="v" gradientUnits="userSpaceOnUse" gradientTransform="scale(1.42084 .70381)" x1="100.915" y1="1084.195" x2="264.273" y2="1664.448"/><linearGradient xlink:href="#c" id="w" gradientUnits="userSpaceOnUse" gradientTransform="scale(.90413 1.10604)" x1="34.117" y1="110.2" x2="75.312" y2="110.947"/><linearGradient xlink:href="#g" id="C" gradientUnits="userSpaceOnUse" gradientTransform="scale(1.45645 .6866)" x1="5.435" y1="216.781" x2="432.548" y2="216.781"/><linearGradient xlink:href="#g" id="D" gradientUnits="userSpaceOnUse" gradientTransform="scale(.9779 1.0226)" x1="323.008" y1="304.735" x2="644.226" y2="304.735"/><linearGradient xlink:href="#g" id="E" gradientUnits="userSpaceOnUse" gradientTransform="scale(.97257 1.0282)" x1="8.145" y1="304.49" x2="324.779" y2="304.49"/><radialGradient xlink:href="#a" id="h" gradientUnits="userSpaceOnUse" cx="79.896" cy="77.945" fx="76.946" fy="-.84" r="68.379"/><radialGradient xlink:href="#a" id="i" gradientUnits="userSpaceOnUse" cx="79.896" cy="77.945" fx="79.896" fy="77.945" r="68.379"/><radialGradient xlink:href="#b" id="j" gradientUnits="userSpaceOnUse" cx="227.005" cy="477.833" fx="240.387" fy="325.766" r="200.732"/><radialGradient xlink:href="#f" id="B" gradientUnits="userSpaceOnUse" gradientTransform="matrix(1 0 0 .5704 -2 274.748)" cx="508.651" cy="676.794" fx="508.651" fy="676.794" r="86.402"/><filter id="A" color-interpolation-filters="sRGB"><feFlood flood-opacity=".498" flood-color="#000" result="flood"/><feComposite in="flood" in2="SourceGraphic" operator="in" result="composite1"/><feGaussianBlur in="composite1" stdDeviation="57.754" result="blur"/><feOffset dy="48" result="offset"/><feComposite in="SourceGraphic" in2="offset" result="composite2"/></filter></defs><g transform="translate(2.266 -114.418)"><path d="M8049.65 394.521v.082c-403.658-3.15-775.114 215.231-884.358 547.192-6.325 19.221-9.569 38.522-12.518 57.79-21.903 8.03-43.187 17.034-64.226 26.438-96.35-2.93-191.157 5.99-281.287 26.685-77.55-40.981-164.162-72.939-258.295-93.478-316.712-69.099-637.238 10.01-858.503 181.798-115.601-113.138-272.14-200.427-459.892-241.387-483.2-105.42-980.942 128.547-1110.417 521.983-9.514 28.91-12.079 57.93-17.181 86.846-435.145-36.828-851.487 185.02-968.302 539.991-64.96 197.398-24.56 397.318 92.699 560.863-80.178 78.649-141.786 171.899-176.48 277.32-115.746 351.727 102.662 711.347 495.238 859.222-21.34 37.679-41.187 76.536-54.818 117.952-129.472 393.442 158.16 797.836 641.362 903.257 236.674 51.641 475.87 21.342 674.416-68.675 109.423 190.608 313.427 343.967 582.371 402.639 383.725 83.721 773.054-48.837 983.274-303.023 85.154 49.084 179.9 89.694 286.522 112.958 137.368 29.969 275.744 32.411 406.548 11.626 76.408 252.997 315.542 465.363 646.352 537.536 236.673 51.638 475.788 21.341 674.333-68.676 109.425 190.606 313.51 343.97 582.454 402.639 383.725 83.719 773.054-48.837 983.274-303.023 85.155 49.083 179.818 89.613 286.44 112.877 253.857 55.382 510.95 16.388 717.042-89.548 115.689 160.941 303.001 287.492 541.545 339.53 383.725 83.719 773.136-48.837 983.355-303.023 85.155 49.083 179.819 89.694 286.441 112.958 483.202 105.415 979.88-128.788 1109.353-522.229 7.35-22.343 13.076-44.763 17.754-67.119 95.042-19.104 184.883-51.064 267.05-93.313 115.686 160.966 302.974 287.647 541.545 339.693 383.726 83.723 773.055-48.919 983.274-303.105 85.155 49.086 179.9 89.694 286.522 112.958 483.205 105.416 979.8-128.788 1109.272-522.227 64.946-197.355 25.059-397.083-91.799-560.946 5.02-4.97 10.513-9.57 15.389-14.652.07-.069.2-.093.3-.2 108.282-88.142 193.024-197.699 235.469-326.68 65.195-198.116 24.442-398.891-93.599-562.99 80.322-78.206 142.854-170.282 177.378-275.195 129.474-393.442-158.158-797.839-641.36-903.257-50.867-11.104-101.856-17.414-152.589-21.2 30.07-345.499-242.67-671.389-668.771-764.353-316.712-69.099-637.156 9.92-858.421 181.717-115.601-113.139-272.139-200.426-459.892-241.388-306.791-66.932-618.835 3.55-839.359 164.199-102.745-75.503-227.771-133.277-370.629-164.444-189.81-41.413-380.84-29.266-551.2 23.819-51.875-281.46-301.166-525.344-660.179-603.673-316.712-69.097-637.238 9.99-858.503 181.799-115.601-113.14-272.139-200.507-459.892-241.47-75.5-16.47-151.308-24.626-226.06-25.211-229.038-1.79-447.581 67.929-613.87 189.082-102.63-75.275-227.487-132.928-370.058-164.034-316.711-69.098-637.238 9.92-858.503 181.716-115.601-113.14-272.14-200.423-459.892-241.388-75.5-16.468-151.308-24.708-226.06-25.293z" fill="#fff" stroke="#000" stroke-width="31" stroke-linejoin="round"/><path d="M8755.467 8981.237V7033.841" fill="none" stroke="#000" stroke-width="50"/><path d="M11044.754 8991.821V7044.425" fill="none" stroke="#000" stroke-width="50"/><path d="M14965.261 8970.655V7023.258" fill="none" stroke="#000" stroke-width="50"/><path d="M5225.713 8977.545V7030.149" fill="none" stroke="#000" stroke-width="50"/><g id="x" transform="matrix(17.26354 0 0 17.27139 3609.307 7317.278)" display="inline" stroke-width=".631"><circle transform="matrix(-.70028 0 0 .25062 123.62 94.156)" cx="79.896" cy="77.945" r="68.379" fill="url(#h)" fill-rule="evenodd" stroke-width=".842"/><circle transform="matrix(-.70028 0 0 .25062 150.614 79.334)" cx="79.896" cy="77.945" r="68.379" fill="url(#i)" fill-rule="evenodd" stroke-width=".842"/><circle transform="matrix(-.23555 0 0 .23555 145.546 -37.045)" cx="224.572" cy="453.502" r="172.748" fill="url(#j)" fill-rule="evenodd" stroke-width=".842"/><path transform="matrix(2.9324 0 0 2.9324 -136.138 -124.385)" d="M80.468 74.849c-1.829-.213-1.847-3.308-.03-3.559 1.142.643 2.202-2.068 2.785-.987-.481 2.05 2.133 1.585 2.632.011.742-1.27.37 1.097.655 1.601.664 1.632-1.392 3.912-2.908 2.532-1.085-.963-2.08.061-3.134.402zm3.826 1.127c.183.708.556.772.8.025.243-.708-.671-.576-.8-.025zm-13.847-17.16c-1.51 1.497-1.957 3.658-2.46 5.644.374 1.401 1.5 2.829.203 4.11-.83 1.8-3.498.667-2.833-1.165-.034-2.17-.3-4.47.744-6.468.571-1.27 1.652-2.8 3.214-2.655.412.092.778.314 1.132.534zm3.34 5.01c-.107-1.741 1.796-1.592 1.367-3.673-.074-1.765-3.757-.886-2.678-2.992 1.004-1.574.884-2.381 3.398-2.788 2.515-.517 5.205-1.122 9.434 1.997 4.117 3.119-3.425.646-4.33 1.79-1.452 1.224-.797 3.901-2.491 4.463-1.464.939-1.348 2.879-1.592 4.4.291 1.246 4.147.361 2.344 2.07-1.833.466-3.062-1.38-4.337-2.354-.646-.61-1.007-1.283-1.114-2.913zm12.693-2.56c1.557-.1 2.196 1.686 2.06 2.983-.85 1.414 1.018 2.732 1.941 1.278.995-1.757-.628-3.957-2.148-4.888-.672-.595-1.995-.514-1.853.626zM71.115 76.184c1.957-.03 3.93-.474 5.875-.065.758 1.019 2.897 1.732 2.925 2.797-1.51 1.056-3.47.064-5.047-.345-1.252-.38-3.03-.116-3.678-1.523-.09-.276-.138-.576-.075-.864z" fill="#0e7a0c" fill-opacity=".594" fill-rule="evenodd" stroke-width=".842"/><path transform="matrix(-.70028 0 0 .70028 149.182 13.144)" d="M66.013 31.41c25.435-15.502 77.18 7.429 69.594 50.62-10.272 13.695-28.873-56.334-69.594-50.62z" fill="url(#k)" fill-rule="evenodd" stroke-width=".842"/><circle transform="matrix(-.58864 0 0 .3958 122.055 37.37)" cx="51.105" cy="31.159" r="49.665" fill="url(#l)" fill-rule="evenodd" stroke-width=".842"/><circle transform="matrix(-.61401 0 0 .48207 124.461 70.924)" cx="51.105" cy="31.159" r="49.665" fill="url(#m)" fill-rule="evenodd" stroke-width=".842"/><path transform="matrix(.14109 0 0 .14109 16.623 -8.272)" fill="none" stroke="url(#n)" stroke-width=".962" stroke-linecap="round" stroke-linejoin="round" d="M181.758 732.314h161.963v59.425H181.758z"/><path transform="matrix(.14109 0 0 .14109 16.623 -8.272)" d="M191.47 842.085v85.202" fill="none" stroke="url(#o)" stroke-width=".87" stroke-linecap="round" stroke-linejoin="round"/><path transform="matrix(.14109 0 0 .14109 16.623 -8.272)" d="M216.643 842.085v85.202" fill="none" stroke="url(#linearGradient8159)" stroke-width=".87" stroke-linecap="round" stroke-linejoin="round"/><path transform="matrix(.14109 0 0 .14109 16.623 -8.272)" d="M241.817 842.085v85.202" fill="none" stroke="url(#linearGradient8161)" stroke-width=".87" stroke-linecap="round" stroke-linejoin="round"/><path transform="matrix(.14109 0 0 .14109 16.623 -8.272)" d="M266.99 842.085v85.202" fill="none" stroke="url(#linearGradient8163)" stroke-width=".87" stroke-linecap="round" stroke-linejoin="round"/><path d="M43.229 110.587v12.021" fill="none" stroke="#000" stroke-width=".12274829999999999" stroke-linecap="round" stroke-linejoin="round" stroke-opacity=".208"/><path d="M46.78 110.587v12.021" fill="none" stroke="#000" stroke-width=".12274829999999999" stroke-linecap="round" stroke-linejoin="round" stroke-opacity=".208"/><path d="M50.332 110.587v12.021" fill="none" stroke="#000" stroke-width=".12274829999999999" stroke-linecap="round" stroke-linejoin="round" stroke-opacity=".208"/><path d="M53.884 110.587v12.021" fill="none" stroke="#000" stroke-width=".12274829999999999" stroke-linecap="round" stroke-linejoin="round" stroke-opacity=".208"/><g><path d="M25.456 124.118l.687-65.945c.033-3.158 3.367-10.269 6.525-10.269h32.63c2.59 0 5.494 6.305 5.494 8.895v64.914c0 2.834-3.177 6.01-6.01 6.01H30.608c-2.097 0-5.174-1.51-5.152-3.605z" fill="#fff" fill-rule="evenodd" stroke-width=".717"/><path transform="matrix(.14109 0 0 .14109 16.623 -8.272)" d="M61.026 938.266l4.868-467.398c.234-22.384 23.869-72.786 46.253-72.786h231.265c18.361 0 38.95 44.687 38.95 63.048v460.095c0 20.082-22.52 42.601-42.602 42.601H97.541c-14.857 0-36.67-10.704-36.515-25.56z" fill="url(#p)" fill-rule="evenodd" stroke="url(#q)" stroke-width="1.548"/><path transform="matrix(.14109 0 0 .14109 16.623 -8.272)" fill="none" stroke="url(#r)" stroke-width=".962" stroke-linecap="round" stroke-linejoin="round" d="M98.679 486.328h247.249v87.789H98.679z"/><circle transform="translate(-141.202 -132.879) scale(3.02607)" cx="57.945" cy="76.854" r="1.445" fill="url(#s)" fill-rule="evenodd" stroke="url(#t)" stroke-width=".045"/><path transform="matrix(.14109 0 0 .14109 16.623 -8.272)" fill="none" stroke="url(#u)" stroke-width=".962" stroke-linecap="round" stroke-linejoin="round" d="M97.818 600.797h247.249v87.789H97.818z"/><path transform="matrix(.14109 0 0 .14109 16.623 -8.272)" fill="url(#v)" fill-rule="evenodd" stroke-width=".126" stroke-linecap="round" stroke-linejoin="round" stroke-opacity=".138" d="M92.024 820.573h251.859v124.758H92.024z"/><path d="M68.903 74.796c-7.302 14.195-9.717 29.545-23.816 32.08-14.098 2.534-18.877 12.018-18.313 17.087.564 5.07 38.91 4.225 40.602 1.69 1.692-2.535 1.692-6.337 1.692-8.449s2.09-41.774-.165-42.408z" fill="url(#w)" fill-rule="evenodd" stroke-width=".842"/><path d="M40.086 110.537v12.02" fill="none" stroke="#fff" stroke-width=".12274829999999999" stroke-linecap="round" stroke-linejoin="round"/><path d="M39.677 110.587v12.021" fill="none" stroke="#000" stroke-width=".12274829999999999" stroke-linecap="round" stroke-linejoin="round" stroke-opacity=".208"/></g></g><use xlink:href="#x" transform="translate(3501.606)" width="100%" height="100%" stroke-width=".631"/><use height="100%" width="100%" transform="translate(5833.21)" xlink:href="#x" stroke-width=".631"/><use xlink:href="#x" transform="translate(9753.716)" width="100%" height="100%" stroke-width=".631"/><path d="M3074.615 7033.843H6946.48" fill="none" stroke="#000" stroke-width="50"/><path d="M7951.473 7033.843h3871.865" fill="none" stroke="#000" stroke-width="50"/><path d="M12828.33 7033.843h3871.866" fill="none" stroke="#000" stroke-width="50"/><text style="line-height:418.99691772px;-inkscape-font-specification:sans-serif;font-variant-ligatures:normal;font-variant-position:normal;font-variant-caps:normal;font-variant-numeric:normal;font-variant-alternates:normal;font-feature-settings:normal;text-indent:0;text-align:center;text-decoration-line:none;text-decoration-style:solid;text-decoration-color:#000;text-transform:none;text-orientation:mixed;white-space:normal;shape-padding:0" x="9927.936" y="1149.001" transform="scale(.99977 1.00023)" font-weight="400" font-size="446.93" font-family="sans-serif" letter-spacing="-16.76" word-spacing="0" text-anchor="middle" stroke-width="26.458"><tspan x="9919.557" y="1149.001" style="line-height:418.99691772px;-inkscape-font-specification:sans-serif;font-variant-ligatures:normal;font-variant-position:normal;font-variant-caps:normal;font-variant-numeric:normal;font-variant-alternates:normal;font-feature-settings:normal;text-indent:0;text-align:center;text-decoration-line:none;text-decoration-style:solid;text-decoration-color:#000;text-transform:none;text-orientation:mixed;white-space:normal;shape-padding:0">Underlay</tspan><tspan x="9919.557" y="1567.998" style="line-height:418.99691772px;-inkscape-font-specification:sans-serif;font-variant-ligatures:normal;font-variant-position:normal;font-variant-caps:normal;font-variant-numeric:normal;font-variant-alternates:normal;font-feature-settings:normal;text-indent:0;text-align:center;text-decoration-line:none;text-decoration-style:solid;text-decoration-color:#000;text-transform:none;text-orientation:mixed;white-space:normal;shape-padding:0">IP Network</tspan></text><text y="4792.358" x="3071.671" style="line-height:418.99691772px;-inkscape-font-specification:sans-serif;font-variant-ligatures:normal;font-variant-position:normal;font-variant-caps:normal;font-variant-numeric:normal;font-variant-alternates:normal;font-feature-settings:normal;text-indent:0;text-align:end;text-decoration-line:none;text-decoration-style:solid;text-decoration-color:#000;text-transform:none;text-orientation:mixed;white-space:normal;shape-padding:0" transform="scale(.99977 1.00023)" font-weight="400" font-size="446.93" font-family="sans-serif" letter-spacing="-16.76" word-spacing="0" text-anchor="end" stroke-width="26.458"><tspan style="line-height:418.99691772px;-inkscape-font-specification:sans-serif;font-variant-ligatures:normal;font-variant-position:normal;font-variant-caps:normal;font-variant-numeric:normal;font-variant-alternates:normal;font-feature-settings:normal;text-indent:0;text-align:end;text-decoration-line:none;text-decoration-style:solid;text-decoration-color:#000;text-transform:none;text-orientation:mixed;white-space:normal;shape-padding:0" y="4792.358" x="3180.436">VXLAN </tspan><tspan style="line-height:418.99691772px;-inkscape-font-specification:sans-serif;font-variant-ligatures:normal;font-variant-position:normal;font-variant-caps:normal;font-variant-numeric:normal;font-variant-alternates:normal;font-feature-settings:normal;text-indent:0;text-align:end;text-decoration-line:none;text-decoration-style:solid;text-decoration-color:#000;text-transform:none;text-orientation:mixed;white-space:normal;shape-padding:0" y="5211.355" x="3054.911">Tunnel</tspan><tspan style="line-height:418.99691772px;-inkscape-font-specification:sans-serif;font-variant-ligatures:normal;font-variant-position:normal;font-variant-caps:normal;font-variant-numeric:normal;font-variant-alternates:normal;font-feature-settings:normal;text-indent:0;text-align:end;text-decoration-line:none;text-decoration-style:solid;text-decoration-color:#000;text-transform:none;text-orientation:mixed;white-space:normal;shape-padding:0" y="5630.352" x="3054.911">Endpoints</tspan></text><path d="M3971.962 2843.056H16507.39M5010.548 6397.85V2891.134M9887.406 6397.85V2891.134m4876.857 3506.716V2891.134" fill="none" stroke="#83c11c" stroke-width="200" stroke-linecap="round" stroke-linejoin="round"/><path d="M14764.263 7044.427V5097.03" fill="none" stroke="#000" stroke-width="50"/><path d="M9887.406 7044.427V5097.03" fill="none" stroke="#000" stroke-width="50"/><path d="M5010.547 7044.427V5097.03" fill="none" stroke="#000" stroke-width="50"/><use height="100%" width="100%" transform="translate(-9753.716)" xlink:href="#y" stroke-width=".631"/><g id="z" transform="matrix(100 0 0 100 224.36 -11274.42)" stroke-width=".5"><path d="M51.396 149.013v11.413" fill="none" fill-rule="evenodd" stroke="#000"/><circle r=".943" cy="159.714" cx="51.396" style="isolation:auto;mix-blend-mode:normal;solid-color:#000;solid-opacity:1;marker:none" color="#000" overflow="visible" enable-background="accumulate"/></g><text style="line-height:418.99691772px;-inkscape-font-specification:sans-serif;font-variant-ligatures:normal;font-variant-position:normal;font-variant-caps:normal;font-variant-numeric:normal;font-variant-alternates:normal;font-feature-settings:normal;text-indent:0;text-align:end;text-decoration-line:none;text-decoration-style:solid;text-decoration-color:#000;text-transform:none;text-orientation:mixed;white-space:normal;shape-padding:0" x="3071.671" y="8563.327" transform="scale(.99977 1.00023)" font-weight="400" font-size="446.93" font-family="sans-serif" letter-spacing="-16.76" word-spacing="0" text-anchor="end" stroke-width="26.458"><tspan x="3054.911" y="8563.327" style="line-height:418.99691772px;-inkscape-font-specification:sans-serif;font-variant-ligatures:normal;font-variant-position:normal;font-variant-caps:normal;font-variant-numeric:normal;font-variant-alternates:normal;font-feature-settings:normal;text-indent:0;text-align:end;text-decoration-line:none;text-decoration-style:solid;text-decoration-color:#000;text-transform:none;text-orientation:mixed;white-space:normal;shape-padding:0">Unsuspecting</tspan><tspan x="3054.911" y="8982.324" style="line-height:418.99691772px;-inkscape-font-specification:sans-serif;font-variant-ligatures:normal;font-variant-position:normal;font-variant-caps:normal;font-variant-numeric:normal;font-variant-alternates:normal;font-feature-settings:normal;text-indent:0;text-align:end;text-decoration-line:none;text-decoration-style:solid;text-decoration-color:#000;text-transform:none;text-orientation:mixed;white-space:normal;shape-padding:0">servers</tspan></text><text y="2590.184" x="4929.661" style="line-height:418.99691772px;-inkscape-font-specification:sans-serif;font-variant-ligatures:normal;font-variant-position:normal;font-variant-caps:normal;font-variant-numeric:normal;font-variant-alternates:normal;font-feature-settings:normal;text-indent:0;text-align:start;text-decoration-line:none;text-decoration-style:solid;text-decoration-color:#000;text-transform:none;text-orientation:mixed;white-space:normal;shape-padding:0" transform="scale(.99977 1.00023)" font-weight="400" font-size="446.93" font-family="sans-serif" letter-spacing="-16.76" word-spacing="0" fill="#618328" stroke-width="26.458"><tspan style="line-height:418.99691772px;-inkscape-font-specification:sans-serif;font-variant-ligatures:normal;font-variant-position:normal;font-variant-caps:normal;font-variant-numeric:normal;font-variant-alternates:normal;font-feature-settings:normal;text-indent:0;text-align:start;text-decoration-line:none;text-decoration-style:solid;text-decoration-color:#000;text-transform:none;text-orientation:mixed;white-space:normal;shape-padding:0" y="2590.184" x="4929.661">2001:db8:ff::/64</tspan></text><text style="line-height:418.99691772px;-inkscape-font-specification:sans-serif;font-variant-ligatures:normal;font-variant-position:normal;font-variant-caps:normal;font-variant-numeric:normal;font-variant-alternates:normal;font-feature-settings:normal;text-indent:0;text-align:start;text-decoration-line:none;text-decoration-style:solid;text-decoration-color:#000;text-transform:none;text-orientation:mixed;white-space:normal;shape-padding:0" x="5277.992" y="7700.94" transform="scale(.99977 1.00023)" font-weight="400" font-size="446.93" font-family="sans-serif" letter-spacing="-16.76" word-spacing="0" fill="#618328" stroke-width="26.458"><tspan x="5277.992" y="7700.94" style="line-height:418.99691772px;-inkscape-font-specification:sans-serif;font-variant-ligatures:normal;font-variant-position:normal;font-variant-caps:normal;font-variant-numeric:normal;font-variant-alternates:normal;font-feature-settings:normal;text-indent:0;text-align:start;text-decoration-line:none;text-decoration-style:solid;text-decoration-color:#000;text-transform:none;text-orientation:mixed;white-space:normal;shape-padding:0">:10</tspan></text><text y="7700.94" x="8808.148" style="line-height:418.99691772px;-inkscape-font-specification:sans-serif;font-variant-ligatures:normal;font-variant-position:normal;font-variant-caps:normal;font-variant-numeric:normal;font-variant-alternates:normal;font-feature-settings:normal;text-indent:0;text-align:start;text-decoration-line:none;text-decoration-style:solid;text-decoration-color:#000;text-transform:none;text-orientation:mixed;white-space:normal;shape-padding:0" transform="scale(.99977 1.00023)" font-weight="400" font-size="446.93" font-family="sans-serif" letter-spacing="-16.76" word-spacing="0" fill="#618328" stroke-width="26.458"><tspan style="line-height:418.99691772px;-inkscape-font-specification:sans-serif;font-variant-ligatures:normal;font-variant-position:normal;font-variant-caps:normal;font-variant-numeric:normal;font-variant-alternates:normal;font-feature-settings:normal;text-indent:0;text-align:start;text-decoration-line:none;text-decoration-style:solid;text-decoration-color:#000;text-transform:none;text-orientation:mixed;white-space:normal;shape-padding:0" y="7700.94" x="8808.148">:11</tspan></text><text style="line-height:418.99691772px;-inkscape-font-specification:sans-serif;font-variant-ligatures:normal;font-variant-position:normal;font-variant-caps:normal;font-variant-numeric:normal;font-variant-alternates:normal;font-feature-settings:normal;text-indent:0;text-align:start;text-decoration-line:none;text-decoration-style:solid;text-decoration-color:#000;text-transform:none;text-orientation:mixed;white-space:normal;shape-padding:0" x="11097.186" y="7700.94" transform="scale(.99977 1.00023)" font-weight="400" font-size="446.93" font-family="sans-serif" letter-spacing="-16.76" word-spacing="0" fill="#618328" stroke-width="26.458"><tspan x="11097.186" y="7700.94" style="line-height:418.99691772px;-inkscape-font-specification:sans-serif;font-variant-ligatures:normal;font-variant-position:normal;font-variant-caps:normal;font-variant-numeric:normal;font-variant-alternates:normal;font-feature-settings:normal;text-indent:0;text-align:start;text-decoration-line:none;text-decoration-style:solid;text-decoration-color:#000;text-transform:none;text-orientation:mixed;white-space:normal;shape-padding:0">:12</tspan></text><text y="7700.94" x="15019.883" style="line-height:418.99691772px;-inkscape-font-specification:sans-serif;font-variant-ligatures:normal;font-variant-position:normal;font-variant-caps:normal;font-variant-numeric:normal;font-variant-alternates:normal;font-feature-settings:normal;text-indent:0;text-align:start;text-decoration-line:none;text-decoration-style:solid;text-decoration-color:#000;text-transform:none;text-orientation:mixed;white-space:normal;shape-padding:0" transform="scale(.99977 1.00023)" font-weight="400" font-size="446.93" font-family="sans-serif" letter-spacing="-16.76" word-spacing="0" fill="#618328" stroke-width="26.458"><tspan style="line-height:418.99691772px;-inkscape-font-specification:sans-serif;font-variant-ligatures:normal;font-variant-position:normal;font-variant-caps:normal;font-variant-numeric:normal;font-variant-alternates:normal;font-feature-settings:normal;text-indent:0;text-align:start;text-decoration-line:none;text-decoration-style:solid;text-decoration-color:#000;text-transform:none;text-orientation:mixed;white-space:normal;shape-padding:0" y="7700.94" x="15019.883">:13</tspan></text><text transform="scale(.99977 1.00023)" y="3970.742" x="15122.449" style="line-height:418.99691772px;-inkscape-font-specification:sans-serif;font-variant-ligatures:normal;font-variant-position:normal;font-variant-caps:normal;font-variant-numeric:normal;font-variant-alternates:normal;font-feature-settings:normal;text-indent:0;text-align:start;text-decoration-line:none;text-decoration-style:solid;text-decoration-color:#000;text-transform:none;text-orientation:mixed;white-space:normal;shape-padding:0" font-weight="400" font-size="317.5" font-family="sans-serif" letter-spacing="-16.76" word-spacing="0" stroke-width="26.458"><tspan style="line-height:418.99691772px;-inkscape-font-specification:sans-serif;font-variant-ligatures:normal;font-variant-position:normal;font-variant-caps:normal;font-variant-numeric:normal;font-variant-alternates:normal;font-feature-settings:normal;text-indent:0;text-align:start;text-decoration-line:none;text-decoration-style:solid;text-decoration-color:#000;text-transform:none;text-orientation:mixed;white-space:normal;shape-padding:0" y="3970.742" x="15122.449">2001:db8:</tspan><tspan style="line-height:418.99691772px;-inkscape-font-specification:sans-serif;font-variant-ligatures:normal;font-variant-position:normal;font-variant-caps:normal;font-variant-numeric:normal;font-variant-alternates:normal;font-feature-settings:normal;text-indent:0;text-align:start;text-decoration-line:none;text-decoration-style:solid;text-decoration-color:#000;text-transform:none;text-orientation:mixed;white-space:normal;shape-padding:0" y="4389.739" x="15122.449"><tspan style="-inkscape-font-specification:'sans-serif Bold'" font-weight="700">3</tspan>::1/128</tspan></text><text style="line-height:418.99691772px;-inkscape-font-specification:sans-serif;font-variant-ligatures:normal;font-variant-position:normal;font-variant-caps:normal;font-variant-numeric:normal;font-variant-alternates:normal;font-feature-settings:normal;text-indent:0;text-align:start;text-decoration-line:none;text-decoration-style:solid;text-decoration-color:#000;text-transform:none;text-orientation:mixed;white-space:normal;shape-padding:0" x="10305.941" y="3970.742" transform="scale(.99977 1.00023)" font-weight="400" font-size="317.5" font-family="sans-serif" letter-spacing="-16.76" word-spacing="0" stroke-width="26.458"><tspan x="10305.941" y="3970.742" style="line-height:418.99691772px;-inkscape-font-specification:sans-serif;font-variant-ligatures:normal;font-variant-position:normal;font-variant-caps:normal;font-variant-numeric:normal;font-variant-alternates:normal;font-feature-settings:normal;text-indent:0;text-align:start;text-decoration-line:none;text-decoration-style:solid;text-decoration-color:#000;text-transform:none;text-orientation:mixed;white-space:normal;shape-padding:0">2001:db8:</tspan><tspan x="10305.941" y="4389.739" style="line-height:418.99691772px;-inkscape-font-specification:sans-serif;font-variant-ligatures:normal;font-variant-position:normal;font-variant-caps:normal;font-variant-numeric:normal;font-variant-alternates:normal;font-feature-settings:normal;text-indent:0;text-align:start;text-decoration-line:none;text-decoration-style:solid;text-decoration-color:#000;text-transform:none;text-orientation:mixed;white-space:normal;shape-padding:0"><tspan style="-inkscape-font-specification:'sans-serif Bold'" font-weight="700">2</tspan>::1/128</tspan></text><text transform="scale(.99977 1.00023)" y="3970.742" x="5436.501" style="line-height:418.99691772px;-inkscape-font-specification:sans-serif;font-variant-ligatures:normal;font-variant-position:normal;font-variant-caps:normal;font-variant-numeric:normal;font-variant-alternates:normal;font-feature-settings:normal;text-indent:0;text-align:start;text-decoration-line:none;text-decoration-style:solid;text-decoration-color:#000;text-transform:none;text-orientation:mixed;white-space:normal;shape-padding:0" font-weight="400" font-size="317.5" font-family="sans-serif" letter-spacing="-16.76" word-spacing="0" stroke-width="26.458"><tspan style="line-height:418.99691772px;-inkscape-font-specification:sans-serif;font-variant-ligatures:normal;font-variant-position:normal;font-variant-caps:normal;font-variant-numeric:normal;font-variant-alternates:normal;font-feature-settings:normal;text-indent:0;text-align:start;text-decoration-line:none;text-decoration-style:solid;text-decoration-color:#000;text-transform:none;text-orientation:mixed;white-space:normal;shape-padding:0" y="3970.742" x="5436.501">2001:db8:</tspan><tspan style="line-height:418.99691772px;-inkscape-font-specification:sans-serif;font-variant-ligatures:normal;font-variant-position:normal;font-variant-caps:normal;font-variant-numeric:normal;font-variant-alternates:normal;font-feature-settings:normal;text-indent:0;text-align:start;text-decoration-line:none;text-decoration-style:solid;text-decoration-color:#000;text-transform:none;text-orientation:mixed;white-space:normal;shape-padding:0" y="4389.739" x="5436.501"><tspan style="-inkscape-font-specification:'sans-serif Bold'" font-weight="700">1</tspan>::1/128</tspan></text><text transform="scale(.99977 1.00023)" y="6397.383" x="5490.719" style="line-height:418.99691772px;-inkscape-font-specification:'sans-serif Bold';font-variant-ligatures:normal;font-variant-position:normal;font-variant-caps:normal;font-variant-numeric:normal;font-variant-alternates:normal;font-feature-settings:normal;text-indent:0;text-align:start;text-decoration-line:none;text-decoration-style:solid;text-decoration-color:#000;text-transform:none;text-orientation:mixed;white-space:normal;shape-padding:0" font-weight="700" font-size="446.93" font-family="sans-serif" letter-spacing="-16.76" word-spacing="0" stroke-width="26.458"><tspan style="line-height:418.99691772px;-inkscape-font-specification:'sans-serif Bold';font-variant-ligatures:normal;font-variant-position:normal;font-variant-caps:normal;font-variant-numeric:normal;font-variant-alternates:normal;font-feature-settings:normal;text-indent:0;text-align:start;text-decoration-line:none;text-decoration-style:solid;text-decoration-color:#000;text-transform:none;text-orientation:mixed;white-space:normal;shape-padding:0" y="6397.383" x="5490.719">S1</tspan></text><text style="line-height:418.99691772px;-inkscape-font-specification:'sans-serif Bold';font-variant-ligatures:normal;font-variant-position:normal;font-variant-caps:normal;font-variant-numeric:normal;font-variant-alternates:normal;font-feature-settings:normal;text-indent:0;text-align:start;text-decoration-line:none;text-decoration-style:solid;text-decoration-color:#000;text-transform:none;text-orientation:mixed;white-space:normal;shape-padding:0" x="10360.16" y="6397.383" transform="scale(.99977 1.00023)" font-weight="700" font-size="446.93" font-family="sans-serif" letter-spacing="-16.76" word-spacing="0" stroke-width="26.458"><tspan x="10360.16" y="6397.383" style="line-height:418.99691772px;-inkscape-font-specification:'sans-serif Bold';font-variant-ligatures:normal;font-variant-position:normal;font-variant-caps:normal;font-variant-numeric:normal;font-variant-alternates:normal;font-feature-settings:normal;text-indent:0;text-align:start;text-decoration-line:none;text-decoration-style:solid;text-decoration-color:#000;text-transform:none;text-orientation:mixed;white-space:normal;shape-padding:0">S2</tspan></text><text transform="scale(.99977 1.00023)" y="6397.383" x="15282.523" style="line-height:418.99691772px;-inkscape-font-specification:'sans-serif Bold';font-variant-ligatures:normal;font-variant-position:normal;font-variant-caps:normal;font-variant-numeric:normal;font-variant-alternates:normal;font-feature-settings:normal;text-indent:0;text-align:start;text-decoration-line:none;text-decoration-style:solid;text-decoration-color:#000;text-transform:none;text-orientation:mixed;white-space:normal;shape-padding:0" font-weight="700" font-size="446.93" font-family="sans-serif" letter-spacing="-16.76" word-spacing="0" stroke-width="26.458"><tspan style="line-height:418.99691772px;-inkscape-font-specification:'sans-serif Bold';font-variant-ligatures:normal;font-variant-position:normal;font-variant-caps:normal;font-variant-numeric:normal;font-variant-alternates:normal;font-feature-settings:normal;text-indent:0;text-align:start;text-decoration-line:none;text-decoration-style:solid;text-decoration-color:#000;text-transform:none;text-orientation:mixed;white-space:normal;shape-padding:0" y="6397.383" x="15282.523">S3</tspan></text><text style="line-height:418.99691772px;-inkscape-font-specification:'sans-serif Bold';font-variant-ligatures:normal;font-variant-position:normal;font-variant-caps:normal;font-variant-numeric:normal;font-variant-alternates:normal;font-feature-settings:normal;text-indent:0;text-align:center;text-decoration-line:none;text-decoration-style:solid;text-decoration-color:#000;text-transform:none;text-orientation:mixed;white-space:normal;shape-padding:0" x="4413.021" y="8103.556" transform="scale(.99977 1.00023)" font-weight="700" font-size="446.93" font-family="sans-serif" letter-spacing="-16.76" word-spacing="0" text-anchor="middle" stroke="#fff" stroke-width="16.5" stroke-miterlimit="0"><tspan x="4404.641" y="8103.556" style="line-height:418.99691772px;-inkscape-font-specification:'sans-serif Bold';font-variant-ligatures:normal;font-variant-position:normal;font-variant-caps:normal;font-variant-numeric:normal;font-variant-alternates:normal;font-feature-settings:normal;text-indent:0;text-align:center;text-decoration-line:none;text-decoration-style:solid;text-decoration-color:#000;text-transform:none;text-orientation:mixed;white-space:normal;shape-padding:0">H1</tspan></text><text transform="scale(.99977 1.00023)" y="8103.556" x="7906.314" style="line-height:418.99691772px;-inkscape-font-specification:'sans-serif Bold';font-variant-ligatures:normal;font-variant-position:normal;font-variant-caps:normal;font-variant-numeric:normal;font-variant-alternates:normal;font-feature-settings:normal;text-indent:0;text-align:center;text-decoration-line:none;text-decoration-style:solid;text-decoration-color:#000;text-transform:none;text-orientation:mixed;white-space:normal;shape-padding:0" font-weight="700" font-size="446.93" font-family="sans-serif" letter-spacing="-16.76" word-spacing="0" text-anchor="middle" stroke="#fff" stroke-width="16.5" stroke-miterlimit="0"><tspan style="line-height:418.99691772px;-inkscape-font-specification:'sans-serif Bold';font-variant-ligatures:normal;font-variant-position:normal;font-variant-caps:normal;font-variant-numeric:normal;font-variant-alternates:normal;font-feature-settings:normal;text-indent:0;text-align:center;text-decoration-line:none;text-decoration-style:solid;text-decoration-color:#000;text-transform:none;text-orientation:mixed;white-space:normal;shape-padding:0" y="8103.556" x="7897.934">H2</tspan></text><text style="line-height:418.99691772px;-inkscape-font-specification:'sans-serif Bold';font-variant-ligatures:normal;font-variant-position:normal;font-variant-caps:normal;font-variant-numeric:normal;font-variant-alternates:normal;font-feature-settings:normal;text-indent:0;text-align:center;text-decoration-line:none;text-decoration-style:solid;text-decoration-color:#000;text-transform:none;text-orientation:mixed;white-space:normal;shape-padding:0" x="10288.106" y="8103.556" transform="scale(.99977 1.00023)" font-weight="700" font-size="446.93" font-family="sans-serif" letter-spacing="-16.76" word-spacing="0" text-anchor="middle" stroke="#fff" stroke-width="16.5" stroke-miterlimit="0"><tspan x="10279.727" y="8103.556" style="line-height:418.99691772px;-inkscape-font-specification:'sans-serif Bold';font-variant-ligatures:normal;font-variant-position:normal;font-variant-caps:normal;font-variant-numeric:normal;font-variant-alternates:normal;font-feature-settings:normal;text-indent:0;text-align:center;text-decoration-line:none;text-decoration-style:solid;text-decoration-color:#000;text-transform:none;text-orientation:mixed;white-space:normal;shape-padding:0">H3</tspan></text><text transform="scale(.99977 1.00023)" y="8103.556" x="14151.898" style="line-height:418.99691772px;-inkscape-font-specification:'sans-serif Bold';font-variant-ligatures:normal;font-variant-position:normal;font-variant-caps:normal;font-variant-numeric:normal;font-variant-alternates:normal;font-feature-settings:normal;text-indent:0;text-align:center;text-decoration-line:none;text-decoration-style:solid;text-decoration-color:#000;text-transform:none;text-orientation:mixed;white-space:normal;shape-padding:0" font-weight="700" font-size="446.93" font-family="sans-serif" letter-spacing="-16.76" word-spacing="0" text-anchor="middle" stroke="#fff" stroke-width="16.5" stroke-miterlimit="0"><tspan style="line-height:418.99691772px;-inkscape-font-specification:'sans-serif Bold';font-variant-ligatures:normal;font-variant-position:normal;font-variant-caps:normal;font-variant-numeric:normal;font-variant-alternates:normal;font-feature-settings:normal;text-indent:0;text-align:center;text-decoration-line:none;text-decoration-style:solid;text-decoration-color:#000;text-transform:none;text-orientation:mixed;white-space:normal;shape-padding:0" y="8103.556" x="14143.519">H4</tspan></text><use xlink:href="#y" transform="translate(-4876.857)" width="100%" height="100%" stroke-width=".631"/><use xlink:href="#z" transform="translate(4868.334)" width="100%" height="100%"/><g id="y" transform="matrix(4.61457 0 0 3.82873 13282.364 4338.491)" stroke-width="6.295" filter="url(#A)"><path d="M-16.853 384.51v-73.528L306 145.692l353.121 138.914v72.45L293.16 529.58-16.853 384.51z" fill="url(#B)"/><path d="M7.927 150.325l307.948 145.173 314.119-148.085L322.046 2.241z" fill="url(#C)"/><path d="M315.875 295.498v180.393l314.119-148.085V147.413z" fill="url(#D)"/><path d="M7.927 150.326l307.948 145.172v180.393L7.927 330.718z" fill="url(#E)"/><path d="M224.219 71.318l49.201 7.181 49.2 7.182-20.908 6.81 51.17 26.964-33.879 13.337-56.279-27.602-20.908 6.809-8.775-20.348z" fill="#e7e7e7"/><path d="M507.688 186.379l-8.775-20.349-8.775-20.348-20.908 6.81-59.473-28.241-33.24 12.698 53.725 28.241-20.909 6.81 49.201 7.182z" fill="#e7e7e7"/><path d="M113.133 129.435l49.201 7.181 49.2 7.182-20.908 6.81 53.085 26.964-32.6 13.976-59.473-28.241-20.908 6.81-8.775-20.349z" fill="#e7e7e7"/><path d="M408.788 226.989l-8.775-20.348-8.775-20.349-20.908 6.81-59.473-28.241-33.878 12.698 54.363 28.242-20.908 6.81 49.2 7.181z" fill="#e7e7e7"/></g><use height="100%" width="100%" transform="translate(9683.751)" xlink:href="#z"/><path d="M427.585 542.415H857.02" fill="none" stroke="#000" stroke-width="50"/><path d="M427.585 1071.582H857.02" fill="none" stroke="#83c11c" stroke-width="200" stroke-linecap="round" stroke-linejoin="round"/><text transform="scale(.99977 1.00023)" y="629.886" x="1162.198" style="line-height:418.99691772px;-inkscape-font-specification:sans-serif;font-variant-ligatures:normal;font-variant-position:normal;font-variant-caps:normal;font-variant-numeric:normal;font-variant-alternates:normal;font-feature-settings:normal;text-indent:0;text-align:start;text-decoration-line:none;text-decoration-style:solid;text-decoration-color:#000;text-transform:none;text-orientation:mixed;white-space:normal;shape-padding:0" font-weight="400" font-size="317.5" font-family="sans-serif" letter-spacing="-16.76" word-spacing="0" stroke-width="26.458"><tspan style="line-height:418.99691772px;-inkscape-font-specification:sans-serif;font-variant-ligatures:normal;font-variant-position:normal;font-variant-caps:normal;font-variant-numeric:normal;font-variant-alternates:normal;font-feature-settings:normal;text-indent:0;text-align:start;text-decoration-line:none;text-decoration-style:solid;text-decoration-color:#000;text-transform:none;text-orientation:mixed;white-space:normal;shape-padding:0" y="629.886" x="1162.198">Regular Ethernet segment</tspan></text><text style="line-height:418.99691772px;-inkscape-font-specification:sans-serif;font-variant-ligatures:normal;font-variant-position:normal;font-variant-caps:normal;font-variant-numeric:normal;font-variant-alternates:normal;font-feature-settings:normal;text-indent:0;text-align:start;text-decoration-line:none;text-decoration-style:solid;text-decoration-color:#000;text-transform:none;text-orientation:mixed;white-space:normal;shape-padding:0" x="1162.198" y="1154.049" transform="scale(.99977 1.00023)" font-weight="400" font-size="317.5" font-family="sans-serif" letter-spacing="-16.76" word-spacing="0" stroke-width="26.458"><tspan x="1162.198" y="1154.049" style="line-height:418.99691772px;-inkscape-font-specification:sans-serif;font-variant-ligatures:normal;font-variant-position:normal;font-variant-caps:normal;font-variant-numeric:normal;font-variant-alternates:normal;font-feature-settings:normal;text-indent:0;text-align:start;text-decoration-line:none;text-decoration-style:solid;text-decoration-color:#000;text-transform:none;text-orientation:mixed;white-space:normal;shape-padding:0">VXLAN segment</tspan></text></g></svg>